<?xml version="1.0" standalone="no"?>
<!DOCTYPE svg PUBLIC "-//W3C//DTD SVG 20010904//EN"
 "http://www.w3.org/TR/2001/REC-SVG-20010904/DTD/svg10.dtd">
<svg version="1.0" xmlns="http://www.w3.org/2000/svg"
 width="510.000000pt" height="510.000000pt" viewBox="0 0 510.000000 510.000000"
 preserveAspectRatio="xMidYMid meet">
<metadata>
Created by potrace 1.14, written by Peter Selinger 2001-2017
</metadata>
<g transform="translate(0.000000,510.000000) scale(0.100000,-0.100000)"
fill="#000000" stroke="none">
<path d="M1168 4851 c-7 -30 -1 -2146 5 -2166 6 -18 78 -64 236 -150 98 -54
126 -70 131 -76 5 -6 138 -81 155 -88 6 -2 23 -13 38 -24 16 -10 30 -18 31
-16 2 2 7 28 10 58 4 29 9 58 12 62 6 10 16 56 17 77 0 6 4 12 9 12 4 0 7 3 6
8 -4 13 26 82 36 82 5 0 7 3 3 6 -6 6 53 104 87 143 37 42 119 121 126 121 3
0 7 44 7 98 1 53 2 106 2 117 1 11 0 45 -2 75 -2 30 1 63 5 73 5 9 5 17 1 17
-4 0 -8 29 -8 65 0 36 4 65 9 65 5 0 4 6 -1 13 -10 15 -10 97 0 115 5 6 5 12
0 12 -4 0 -8 41 -8 90 0 50 4 90 8 90 4 0 4 8 0 18 -10 21 -10 43 0 60 5 6 5
12 0 12 -4 0 -8 16 -8 35 0 19 4 35 8 35 5 0 5 5 1 11 -10 16 -11 149 -1 149
5 0 5 5 1 12 -4 6 -9 50 -11 97 -5 109 -5 111 -12 111 -3 0 -7 10 -7 23 -3 45
-8 67 -16 67 -4 0 -8 6 -8 14 0 19 -38 104 -50 111 -6 4 -8 11 -5 16 4 5 1 9
-6 9 -7 0 -10 3 -6 6 3 4 1 12 -6 19 -7 6 -23 27 -37 45 -32 43 -118 125 -165
157 -31 21 -131 75 -145 79 -3 0 -12 3 -20 6 -15 6 -80 23 -130 34 -14 3 -84
7 -157 8 -113 3 -132 1 -135 -13z"/>
<path d="M2970 4113 c-19 -9 -37 -20 -40 -23 -3 -3 -18 -12 -35 -20 -16 -8
-32 -17 -35 -20 -6 -6 -27 -18 -108 -62 -31 -16 -60 -35 -64 -42 -4 -6 -8 -7
-8 -3 0 4 -17 -4 -37 -18 -21 -14 -43 -25 -50 -25 -7 0 -13 -4 -13 -10 0 -5
-7 -10 -15 -10 -8 0 -15 -5 -15 -10 0 -6 -3 -9 -7 -8 -5 1 -36 -14 -71 -35
-35 -20 -67 -37 -73 -37 -5 0 -9 -4 -9 -10 0 -5 -7 -10 -15 -10 -8 0 -15 -5
-15 -11 0 -5 -4 -7 -10 -4 -5 3 -10 3 -10 -2 0 -4 -18 -17 -41 -27 -22 -11
-50 -30 -63 -43 -23 -23 -23 -23 -25 -354 -2 -315 -1 -331 16 -326 39 13 119
39 133 44 64 24 225 34 310 20 19 -3 54 -9 78 -13 23 -4 42 -11 42 -17 0 -6 3
-8 6 -4 3 3 17 1 31 -4 30 -11 79 2 117 32 14 11 26 17 26 13 0 -4 10 2 23 14
13 12 27 19 30 15 4 -3 7 -1 7 5 0 7 7 12 15 12 8 0 15 5 15 11 0 5 5 7 10 4
6 -3 10 -1 10 4 0 6 4 11 10 11 5 0 33 14 62 31 29 18 123 72 208 122 85 49
170 98 188 108 72 42 110 64 174 100 37 20 80 46 95 56 15 11 42 26 60 34 30
13 31 15 16 31 -9 10 -20 18 -26 18 -5 0 -42 20 -82 44 -40 25 -76 42 -79 39
-3 -4 -6 -1 -6 5 0 7 -16 18 -35 26 -19 8 -35 20 -35 26 0 6 -4 9 -9 6 -5 -3
-25 5 -44 18 -19 13 -38 22 -41 18 -3 -3 -6 0 -6 6 0 7 -7 12 -15 12 -8 0 -15
5 -15 10 0 6 -5 10 -11 10 -6 0 -23 9 -39 20 -15 11 -30 17 -34 13 -3 -3 -6
-2 -6 4 0 5 -18 18 -40 28 -22 10 -40 21 -40 25 0 4 -8 10 -17 13 -19 7 -78
39 -189 104 -88 52 -110 57 -154 36z"/>
<path d="M3905 3532 c-17 -9 -31 -20 -33 -24 -2 -5 -10 -8 -18 -8 -8 0 -23 -9
-34 -20 -11 -11 -23 -19 -26 -18 -9 2 -174 -96 -174 -104 0 -5 6 -8 14 -8 7 0
19 -7 26 -15 7 -8 16 -12 21 -9 5 3 9 1 9 -4 0 -5 8 -12 18 -16 9 -3 31 -14
47 -23 17 -10 53 -31 80 -47 28 -16 64 -37 80 -47 l31 -18 -1 184 c0 101 -2
186 -5 188 -3 3 -19 -2 -35 -11z"/>
<path d="M3570 3272 c-8 -3 -32 -16 -52 -29 -21 -13 -38 -21 -38 -18 0 3 -10
-3 -22 -15 -12 -11 -25 -20 -30 -20 -4 0 -29 -13 -55 -29 -94 -56 -188 -109
-196 -110 -4 0 -19 -9 -34 -21 -14 -11 -32 -20 -39 -20 -8 0 -14 -4 -14 -8 0
-5 -18 -17 -40 -28 -47 -22 -50 -34 -12 -56 56 -35 192 -181 192 -206 0 -6 8
-16 18 -21 9 -6 13 -11 9 -11 -4 0 4 -20 18 -45 14 -25 25 -52 25 -60 0 -8 5
-15 12 -15 6 0 9 -3 5 -6 -3 -3 1 -24 9 -46 8 -23 16 -56 18 -75 5 -37 51 -85
69 -71 1 1 15 -9 30 -22 16 -14 32 -25 35 -25 6 0 80 -41 147 -82 11 -7 36
-20 55 -30 19 -10 41 -24 48 -30 7 -7 20 -13 27 -13 8 0 19 -8 24 -17 6 -10
11 -15 11 -11 0 4 35 -14 78 -39 42 -25 102 -59 132 -76 30 -16 60 -34 67 -39
7 -5 27 -17 45 -27 44 -22 82 -45 88 -51 3 -3 24 -14 47 -25 24 -11 43 -23 43
-27 0 -5 6 -8 13 -8 7 0 30 -12 50 -26 21 -14 42 -23 45 -19 10 10 10 987 0
1010 -9 20 -69 65 -88 65 -5 0 -10 5 -10 10 0 6 -4 10 -10 10 -5 0 -44 20 -86
45 -41 25 -77 45 -79 45 -2 0 -38 20 -79 45 -42 25 -81 45 -86 45 -6 0 -10 4
-10 8 0 5 -22 19 -50 32 -27 13 -50 27 -50 32 0 4 -9 8 -19 8 -11 0 -21 4 -23
8 -1 5 -30 24 -63 42 -33 18 -69 38 -80 44 -11 6 -27 15 -35 21 -17 11 -40 13
-60 7z"/>
<path d="M1030 2989 c-25 -15 -51 -28 -57 -28 -7 -1 -13 -5 -13 -9 0 -4 -16
-14 -35 -21 -19 -7 -35 -17 -35 -22 0 -5 -6 -9 -13 -9 -7 0 -29 -11 -48 -25
-20 -13 -39 -21 -43 -18 -3 4 -6 0 -6 -8 0 -8 21 -26 48 -39 26 -14 49 -28 50
-32 2 -5 8 -8 14 -8 5 0 29 -14 54 -30 24 -17 44 -29 44 -26 0 3 16 -6 36 -19
63 -43 62 -43 63 145 0 93 -3 171 -7 173 -4 2 -27 -8 -52 -24z"/>
<path d="M717 2773 c-2 -5 -4 -236 -5 -515 l-1 -508 23 -25 c13 -14 26 -25 29
-25 3 0 40 -20 81 -45 42 -25 81 -45 86 -45 6 0 10 -4 10 -10 0 -5 6 -10 14
-10 7 0 19 -7 26 -15 7 -8 16 -12 21 -9 5 3 9 0 9 -5 0 -6 7 -11 15 -11 8 0
15 -5 15 -12 0 -6 3 -8 6 -5 4 4 19 -2 33 -12 27 -19 96 -58 166 -95 22 -12
45 -26 52 -32 6 -6 25 -17 42 -24 17 -7 31 -17 31 -23 0 -6 3 -7 6 -4 4 4 19
-3 35 -14 50 -36 120 -62 132 -50 6 6 17 11 24 11 7 0 22 8 33 18 11 9 24 17
28 17 4 0 18 8 32 16 54 35 242 139 250 139 5 0 10 3 12 8 3 8 34 26 116 68
28 15 52 31 52 36 0 4 6 7 13 6 27 -6 9 22 -43 64 -48 40 -122 118 -156 167
-50 70 -113 228 -121 301 -4 38 -19 60 -39 60 -8 0 -14 4 -14 9 0 5 -16 15
-35 22 -19 7 -35 17 -35 21 0 4 -6 8 -14 8 -7 0 -19 7 -26 15 -7 8 -16 12 -21
9 -5 -3 -9 -1 -9 4 0 5 -22 20 -50 33 -27 13 -50 27 -50 31 0 5 -4 8 -10 8 -5
0 -47 23 -94 50 -47 28 -89 50 -95 50 -6 0 -11 4 -11 9 0 5 -8 11 -17 15 -20
7 -78 39 -140 79 -24 15 -45 27 -48 27 -2 0 -39 20 -81 45 -41 25 -80 45 -85
45 -5 0 -9 3 -9 8 0 4 -15 13 -32 21 -18 8 -35 17 -38 21 -5 6 -100 60 -106
60 -1 0 -5 -3 -7 -7z"/>
<path d="M2408 2663 c-4 -7 -3 -775 1 -825 1 -16 15 -17 154 -14 172 3 196 10
258 78 55 59 74 147 55 243 -6 29 -25 74 -36 85 -16 16 -29 50 -20 50 21 0 44
75 46 149 1 58 -3 83 -20 115 -28 55 -71 93 -126 110 -49 16 -305 23 -312 9z
m260 -137 c46 -11 64 -43 60 -108 -3 -49 -5 -54 -38 -70 -23 -12 -53 -17 -90
-15 l-55 2 -1 93 c-1 66 3 95 12 100 15 9 67 7 112 -2z m2 -339 c30 -6 53 -25
65 -53 14 -35 12 -98 -6 -130 -12 -24 -71 -50 -88 -40 -5 4 -12 2 -16 -4 -4
-6 -11 -7 -17 -4 -6 4 -23 7 -37 8 l-26 1 0 110 c-1 61 2 112 6 115 7 5 91 3
119 -3z"/>
<path d="M3359 2228 c0 -2 -2 -22 -4 -45 -2 -23 -9 -61 -16 -85 -6 -24 -13
-51 -14 -60 -4 -19 -30 -81 -48 -113 -6 -11 -17 -33 -26 -50 -8 -16 -20 -35
-25 -41 -6 -6 -18 -22 -26 -35 -8 -12 -44 -52 -79 -88 l-65 -64 1 -442 c0
-243 3 -447 7 -454 4 -6 4 -11 -1 -11 -6 0 -9 -185 -4 -292 1 -15 5 -16 26 -6
14 6 25 15 25 19 0 4 14 10 30 14 17 4 30 11 30 16 0 5 4 9 9 9 5 0 42 20 83
44 40 25 100 59 133 77 33 17 68 38 78 47 9 8 17 12 17 8 0 -3 19 7 42 24 22
16 47 30 54 30 7 0 14 3 16 8 4 9 76 51 101 59 9 3 17 9 17 14 0 5 5 9 10 9 6
0 28 11 50 25 22 14 46 25 55 25 8 0 15 4 15 10 0 5 15 17 33 26 73 38 69 3
68 514 0 484 -1 492 -45 506 -17 6 -114 60 -166 94 -8 6 -32 18 -52 27 -21 10
-38 21 -38 25 0 5 -4 8 -9 8 -13 0 -155 82 -163 94 -5 7 -8 7 -8 1 0 -7 -3 -7
-8 0 -12 17 -100 62 -103 53z"/>
<path d="M4028 1768 c-2 -79 -1 -164 2 -191 l5 -47 67 39 c37 22 77 42 88 46
11 3 20 10 20 14 0 9 51 35 63 33 4 -1 7 3 7 8 0 6 6 10 13 10 6 0 26 11 42
25 22 18 25 24 13 25 -9 0 -18 3 -20 8 -1 4 -21 16 -43 28 -57 30 -134 74
-175 99 -19 12 -45 27 -57 34 l-22 11 -3 -142z"/>
<path d="M2899 1555 c-8 -8 -23 -16 -34 -17 -11 -2 -25 -7 -31 -10 -20 -13
-140 -39 -186 -42 -16 0 -28 -4 -28 -9 0 -4 -5 -5 -11 -1 -6 3 -43 8 -82 9
-89 4 -136 12 -207 35 l-55 18 -80 -44 c-44 -25 -102 -59 -130 -75 -27 -17
-58 -33 -67 -36 -10 -3 -18 -9 -18 -13 0 -4 -8 -10 -17 -14 -10 -3 -40 -19
-68 -36 -27 -16 -57 -33 -65 -37 -8 -4 -43 -24 -78 -45 -34 -21 -67 -38 -72
-38 -6 0 -10 -4 -10 -9 0 -5 -11 -12 -25 -15 -14 -4 -25 -11 -25 -17 0 -6 -5
-7 -10 -4 -6 3 -10 2 -10 -3 0 -9 -20 -18 -44 -20 -5 0 -12 -4 -15 -10 -8 -12
-196 -122 -209 -122 -6 0 -12 -3 -14 -7 -1 -5 -21 -18 -43 -30 -22 -12 -41
-26 -43 -32 -2 -5 18 -22 45 -37 26 -16 50 -32 51 -36 2 -4 11 -8 20 -8 8 0
23 -6 31 -14 9 -7 37 -25 62 -39 74 -40 94 -52 99 -57 5 -5 33 -21 95 -55 91
-49 155 -87 161 -96 3 -5 10 -7 15 -4 5 4 9 2 9 -3 0 -5 8 -12 18 -15 9 -4 37
-18 62 -33 25 -15 65 -38 90 -52 25 -14 48 -30 52 -36 4 -6 8 -7 8 -2 0 5 7 3
15 -4 19 -16 82 -15 103 1 9 8 26 19 37 25 95 51 312 180 317 189 4 5 8 6 8 2
0 -5 12 0 28 10 57 38 68 44 95 56 15 6 27 14 27 18 0 4 14 12 30 19 17 7 30
17 30 22 0 5 4 7 9 4 5 -3 19 2 32 12 13 10 43 28 66 40 23 12 53 32 65 44 23
23 23 24 24 351 1 180 -1 329 -5 332 -4 2 -14 -2 -22 -10z"/>
<path d="M1166 1355 c-3 -8 -2 -15 2 -15 4 0 6 -76 5 -170 l-2 -170 52 28 c29
16 76 43 105 60 28 17 52 28 52 24 0 -4 4 -1 8 5 4 7 28 23 52 36 47 25 66 57
33 57 -11 0 -23 4 -28 9 -6 5 -26 18 -46 29 -69 38 -84 47 -89 52 -3 3 -18 12
-35 20 -16 8 -37 19 -45 26 -27 21 -57 26 -64 9z"/>
<path d="M3015 831 c-3 -6 -11 -9 -16 -6 -5 4 -9 2 -9 -3 0 -4 -18 -18 -41
-30 -73 -39 -104 -57 -109 -63 -3 -3 -27 -16 -53 -30 -26 -13 -57 -28 -67 -34
-11 -5 -20 -13 -20 -18 0 -4 -4 -5 -10 -2 -5 3 -10 3 -10 -1 0 -12 42 -44 97
-71 29 -15 53 -31 53 -35 0 -4 5 -8 11 -8 7 0 50 -23 96 -51 47 -28 87 -49 89
-47 5 6 6 399 1 405 -3 2 -8 -1 -12 -6z"/>
</g>
</svg>
