<?xml version="1.0" encoding="UTF-8"?>
<svg version="1.1" xmlns="http://www.w3.org/2000/svg" width="35" height="40" viewBox="125 55 170 160" preserveAspectRatio="xMidYMid meet">
<path d="M0 0 C7.72305649 -0.42730026 14.03676621 -0.24647874 20.203125 4.8046875 C27.58433153 11.8407297 29.66036323 19.62351385 30.125 29.71484375 C30.125 31.81031013 30.06866692 33.90565901 30 36 C30.59425781 35.56429687 31.18851563 35.12859375 31.80078125 34.6796875 C37.95754917 30.25600666 44.26535518 26.4749046 51 23 C51.62390625 22.54496094 52.2478125 22.08992188 52.890625 21.62109375 C55 21 55 21 58.1796875 22.2734375 C59.42095283 22.95699378 60.65228543 23.6587892 61.875 24.375 C62.5261377 24.74206055 63.17727539 25.10912109 63.84814453 25.48730469 C65.21354962 26.25898388 66.57532056 27.0371247 67.93359375 27.82128906 C69.95910547 28.97667311 72.00436006 30.08367803 74.0625 31.1796875 C75.33368723 31.86913956 76.6045342 32.55921945 77.875 33.25 C79.02742188 33.87390625 80.17984375 34.4978125 81.3671875 35.140625 C84 37 84 37 84.921875 38.87109375 C85.02067244 41.56332403 84.67053205 44.13552943 84.375 46.8125 C84.18294655 50.00295141 84.18294655 50.00295141 85 53 C88.28914586 56.14308182 91.96124 57.9745558 96 60 C99.37133671 63.37133671 98.33766341 68.04355953 98.37109375 72.59570312 C98.37093262 73.28801025 98.37077148 73.98031738 98.37060547 74.69360352 C98.37496291 76.79461682 98.41122716 78.8935015 98.44921875 80.99414062 C98.4550903 82.33593034 98.45905743 83.67773001 98.4609375 85.01953125 C98.46915527 86.23745361 98.47737305 87.45537598 98.48583984 88.71020508 C97.90405672 92.64966618 96.83388156 94.24319506 94 97 C91.87475586 98.05786133 91.87475586 98.05786133 89.77734375 98.76953125 C87.65785822 99.65642888 87.65785822 99.65642888 86 101 C85.12916311 103.89136133 85.42351882 106.69528103 85.5625 109.6875 C85.34750923 117.59097036 85.34750923 117.59097036 82.44921875 120.62158203 C78.33854588 123.4708385 73.78224494 125.30721546 69.13964844 127.11376953 C66.14647394 128.35352574 63.45108382 130.00613261 60.6875 131.6875 C58.19921875 133.19921875 58.19921875 133.19921875 56 134 C53.9140625 133.28125 53.9140625 133.28125 52 132 C47.14946736 128.70541466 47.14946736 128.70541466 41.5 128 C38.6186864 128.82323246 36.9124287 129.54490635 34.4375 131.0625 C30.58359718 133.23469977 29.32449888 133.545662 25 133 C22.02814779 131.66656662 19.31588576 129.98334276 16.5625 128.25 C15.10566035 127.35906162 13.64863115 126.46843312 12.19140625 125.578125 C11.49047852 125.13734619 10.78955078 124.69656738 10.06738281 124.24243164 C8.03825335 122.98302481 8.03825335 122.98302481 5.97167969 122.00561523 C2.62876529 120.35791259 1.18100998 119.42434375 -0.3046875 115.94140625 C-0.49289063 114.82636719 -0.68109375 113.71132812 -0.875 112.5625 C-1.07867187 111.45003906 -1.28234375 110.33757812 -1.4921875 109.19140625 C-1.80374318 107.23339864 -2.06984022 105.26667773 -2.2578125 103.29296875 C-3.3155379 100.02515396 -5.02954159 99.35337244 -8 97.75 C-9.36125 96.99976563 -9.36125 96.99976563 -10.75 96.234375 C-11.4925 95.82703125 -12.235 95.4196875 -13 95 C-15.72810724 92.27189276 -14.3186859 84.40185352 -14.35009766 80.47241211 C-14.36664238 78.95435235 -14.39391364 77.43637003 -14.43212891 75.91870117 C-14.48695794 73.73054592 -14.50877897 71.54421881 -14.5234375 69.35546875 C-14.5531665 67.38549927 -14.5531665 67.38549927 -14.58349609 65.37573242 C-14 62 -14 62 -11.59130859 59.60400391 C-9.49902576 58.30889384 -7.48843591 57.19281524 -5.25 56.1875 C-1.72535925 54.35056142 -1.72535925 54.35056142 -1.30078125 51.0168457 C-0.8217752 46.20353471 -0.89493493 41.37438886 -0.9375 36.54296875 C-0.94128662 35.55879471 -0.94507324 34.57462067 -0.94897461 33.56062317 C-0.96113255 30.43620299 -0.97977593 27.31187773 -1 24.1875 C-1.02651843 20.05599229 -1.04652613 15.92452912 -1.0625 11.79296875 C-1.07494751 10.36491158 -1.07494751 10.36491158 -1.08764648 8.90800476 C-1.09260132 7.59072136 -1.09260132 7.59072136 -1.09765625 6.24682617 C-1.10289307 5.47296066 -1.10812988 4.69909515 -1.11352539 3.90177917 C-1 2 -1 2 0 0 Z M30 58 C29.67 58.99 29.34 59.98 29 61 C28.401875 61.268125 27.80375 61.53625 27.1875 61.8125 C23.21782585 63.96746597 21.38954774 67.83135679 20 72 C19.61497938 79.57207217 19.98723415 85.94663349 25 91.9375 C27.88272537 95.12015601 27.88272537 95.12015601 31.9453125 96.09765625 C32.66460937 96.08605469 33.38390625 96.07445312 34.125 96.0625 C35.40375 96.041875 36.6825 96.02125 38 96 C37.855625 95.443125 37.71125 94.88625 37.5625 94.3125 C36.44982474 89.73816839 35.88530248 85.62021959 35.9375 80.89453125 C35.94523437 79.74662109 35.95296875 78.59871094 35.9609375 77.41601562 C35.98027344 75.63227539 35.98027344 75.63227539 36 73.8125 C36.02542614 71.44405527 36.04648742 69.07555833 36.0625 66.70703125 C36.07410156 65.6600708 36.08570313 64.61311035 36.09765625 63.53442383 C36.17469563 61.00568832 36.17469563 61.00568832 35 59 C32.47266765 58.34444881 32.47266765 58.34444881 30 58 Z M55 72 C55 78.6 55 85.2 55 92 C59.03795904 90.99051024 60.06067317 90.46727244 62.171875 87.015625 C63.85687688 82.914394 64.36565119 78.40111069 64 74 C62.74823406 71.65195791 62.74823406 71.65195791 61 70 C58.5527864 69.8509288 58.5527864 69.8509288 55 72 Z M53 76 C54 79 54 79 54 79 Z " fill="#FEFDFB" transform="translate(167,73)"/>
<path d="M0 0 C2.09619462 -0.04056424 4.19261425 -0.06962318 6.2890625 -0.09375 C7.45646973 -0.11115234 8.62387695 -0.12855469 9.82666016 -0.14648438 C16.0113168 0.13900524 18.87309553 3.75848264 22.8125 8.0625 C25.9535354 11.6750374 27.10555284 14.39250204 27.20874023 19.17675781 C27.23767616 20.43386566 27.23767616 20.43386566 27.26719666 21.71636963 C27.32516518 25.54865957 27.37421652 29.38076698 27.4050293 33.21337891 C27.42660172 35.23080572 27.46069562 37.24813913 27.50756836 39.26513672 C27.57470577 42.18238882 27.60204996 45.09770843 27.62109375 48.015625 C27.64892441 48.91065735 27.67675507 49.8056897 27.70542908 50.72784424 C27.68981002 55.51674242 27.23691502 58.27313579 24.05249023 61.95825195 C23.51816879 62.48707474 22.98384735 63.01589752 22.43333435 63.56074524 C20.5426461 65.45924301 19.61337869 67.46655328 18.625 69.9375 C18.30789062 70.70964844 17.99078125 71.48179687 17.6640625 72.27734375 C17.44492188 72.84582031 17.22578125 73.41429687 17 74 C10.60228685 71.98231352 4.73137205 69.92854639 0 65 C-1.51253533 60.05005489 -1.28814356 55.21502273 -1.07421875 50.09765625 C-1.05367614 48.65040525 -1.03803039 47.20307721 -1.02705383 45.75572205 C-0.98524802 41.96423385 -0.87740487 38.17745625 -0.75531006 34.38781738 C-0.64233593 30.51375062 -0.59245145 26.63891454 -0.53710938 22.76367188 C-0.41948689 15.17364401 -0.23202541 7.58748436 0 0 Z " fill="#EDA556" transform="translate(168,74)"/>
<path d="M0 0 C1.9921875 1.0859375 1.9921875 1.0859375 3.875 2.375 C7.44176742 4.71485306 11.07145077 6.32672903 15 8 C20.4 11.4 20.4 11.4 22 13 C22.08783542 15.21855264 22.10694609 17.43988496 22.09765625 19.66015625 C22.0962413 20.32462265 22.09482635 20.98908905 22.09336853 21.6736908 C22.08775518 23.80333899 22.07520054 25.93288339 22.0625 28.0625 C22.05748671 29.50325369 22.05292351 30.94400903 22.04882812 32.38476562 C22.03778145 35.92321102 22.02050792 39.46159539 22 43 C18.34610318 42.31245045 15.50962056 40.75854252 12.28125 38.9453125 C11.18425781 38.33042969 10.08726562 37.71554688 8.95703125 37.08203125 C7.81621094 36.43621094 6.67539063 35.79039062 5.5 35.125 C3.78876953 34.16787109 3.78876953 34.16787109 2.04296875 33.19140625 C-11.06076529 25.81574397 -11.06076529 25.81574397 -12.9375 20.125 C-14.60443446 15.58243758 -16.3031286 13.08072616 -20 10 C-18.62380285 5.87140856 -15.8494573 4.79017823 -12.25 2.75 C-11.62867188 2.37359375 -11.00734375 1.9971875 -10.3671875 1.609375 C-6.53001457 -0.59254702 -4.20766825 -1.6227526 0 0 Z " fill="#EDA459" transform="translate(243,122)"/>
<path d="M0 0 C6.24189988 2.34437554 11.88919013 5.73906458 17.6875 9 C18.84056641 9.64195312 19.99363281 10.28390625 21.18164062 10.9453125 C22.28056641 11.56148437 23.37949219 12.17765625 24.51171875 12.8125 C25.51678467 13.37582031 26.52185059 13.93914062 27.55737305 14.51953125 C31.32232267 16.80145574 32.33626765 18.63852093 33.75 22.6875 C35.7054377 27.79089613 38.23877225 31.06780735 42 35 C39.44696285 36.5390224 36.88460065 38.05595193 34.3125 39.5625 C33.2306543 40.21895508 33.2306543 40.21895508 32.12695312 40.88867188 C26.72787462 44.01964434 26.72787462 44.01964434 23.25 43.92578125 C20.93068327 42.97147905 18.83531419 41.92075628 16.6875 40.625 C13.73617412 38.91323099 10.90706789 37.50425142 7.6875 36.375 C2.25332759 34.34869842 2.25332759 34.34869842 0 32 C-0.35711867 29.42202563 -0.46813593 27.27685887 -0.390625 24.70703125 C-0.38496521 24.00100266 -0.37930542 23.29497406 -0.37347412 22.56755066 C-0.35110411 20.31517374 -0.30091199 18.06439497 -0.25 15.8125 C-0.22993556 14.28452821 -0.21168468 12.75653144 -0.1953125 11.22851562 C-0.15123802 7.48506244 -0.08221074 3.74280205 0 0 Z " fill="#EEAC5B" transform="translate(154,136)"/>
<path d="M0 0 C9.555156 4.66844551 18.89913132 9.48432201 28 15 C26.72552963 18.82341111 25.51972932 19.12027416 22.046875 21.03125 C21.03496094 21.59457031 20.02304688 22.15789062 18.98046875 22.73828125 C17.91441406 23.31964844 16.84835938 23.90101562 15.75 24.5 C13.66124442 25.65586352 11.57269567 26.81210091 9.484375 27.96875 C8.55334961 28.47857422 7.62232422 28.98839844 6.66308594 29.51367188 C4.87518705 30.51153843 3.1181276 31.56658731 1.39550781 32.67333984 C-2.00929382 34.55895869 -5.22427831 34.28522435 -9 34.125 C-13.45878455 33.98514882 -17.63866892 33.89263078 -22 35 C-22.11638036 31.75030231 -22.18730581 28.5011417 -22.25 25.25 C-22.28351563 24.32960938 -22.31703125 23.40921875 -22.3515625 22.4609375 C-22.450539 15.63155913 -22.450539 15.63155913 -20.25 12.546875 C-19.5075 12.03640625 -18.765 11.5259375 -18 11 C-17.31421875 10.484375 -16.6284375 9.96875 -15.921875 9.4375 C-11.08371065 6.23526173 -6.22523559 3.51931002 -1 1 C-0.67 0.67 -0.34 0.34 0 0 Z " fill="#EEAB5F" transform="translate(221,94)"/>
<path d="M0 0 C0.14554346 3.08283443 0.23413821 6.16478439 0.3125 9.25 C0.35439453 10.12269531 0.39628906 10.99539062 0.43945312 11.89453125 C0.56308749 18.37297217 0.56308749 18.37297217 -2.1328125 21.375 C-3.07898438 21.91125 -4.02515625 22.4475 -5 23 C-6.00417969 23.63421875 -7.00835937 24.2684375 -8.04296875 24.921875 C-9.08066406 25.52515625 -10.11835938 26.1284375 -11.1875 26.75 C-12.23292969 27.36359375 -13.27835938 27.9771875 -14.35546875 28.609375 C-17 30 -17 30 -19 30 C-19.33 30.99 -19.66 31.98 -20 33 C-22.93242002 34.46621001 -24.71466627 34.3458246 -28 34 C-31.0391086 32.67839248 -33.80936667 30.99021782 -36.625 29.25 C-37.37523437 28.8065625 -38.12546875 28.363125 -38.8984375 27.90625 C-46.59790336 23.26472803 -46.59790336 23.26472803 -49 20 C-48.93408203 18.09350586 -48.93408203 18.09350586 -48 16 C-45.60742188 14.27661133 -45.60742188 14.27661133 -42.46875 12.58203125 C-40.78845703 11.66067383 -40.78845703 11.66067383 -39.07421875 10.72070312 C-37.88305469 10.08418199 -36.69164534 9.44811968 -35.5 8.8125 C-34.30791451 8.16596436 -33.11649912 7.51819154 -31.92578125 6.86914062 C-29.75165984 5.68450715 -27.57421043 4.5059488 -25.39257812 3.33520508 C-23.11708202 2.20804254 -23.11708202 2.20804254 -22 1 C-18.4144297 0.93961145 -14.84274428 0.97990521 -11.2578125 1.0390625 C-7.33146197 1.07940172 -3.77195038 0 0 0 Z " fill="#EDA75A" transform="translate(220,172)"/>
<path d="M0 0 C1.89709988 0.93493439 3.79262578 1.87306296 5.6875 2.8125 C6.74324219 3.33457031 7.79898438 3.85664063 8.88671875 4.39453125 C10.42779297 5.18923828 10.42779297 5.18923828 12 6 C12.87333984 6.39485596 13.74667969 6.78971191 14.64648438 7.1965332 C17 9 17 9 17.69458008 11.92333984 C17.83519804 18.56032431 17.83519804 18.56032431 17.81665039 21.34179688 C17.81252148 23.3644772 17.87747167 25.37712563 17.94726562 27.3984375 C17.9712759 36.92571607 17.9712759 36.92571607 15.22973633 39.95800781 C13.19413084 41.21274168 11.2100025 42.10368669 9 43 C8.360625 43.66 7.72125 44.32 7.0625 45 C2.54239246 49.38313459 -2.86933688 51.86944649 -9 53 C-9.1489943 47.85893273 -9.25751582 42.71913798 -9.32958984 37.57641602 C-9.35965146 35.82944837 -9.40051371 34.08263028 -9.45263672 32.33618164 C-9.5259298 29.81619293 -9.55956001 27.2982086 -9.5859375 24.77734375 C-9.61690521 24.00414291 -9.64787292 23.23094208 -9.67977905 22.43431091 C-9.68311963 16.97777768 -8.25545408 14.34208787 -4.41320801 10.48168945 C-2.55522465 8.53367166 -1.83770258 6.63614821 -1.125 4.0625 C-0.90070313 3.29035156 -0.67640625 2.51820313 -0.4453125 1.72265625 C-0.29835937 1.15417969 -0.15140625 0.58570313 0 0 Z " fill="#EDA758" transform="translate(233,152)"/>
<path d="M0 0 C10 0 10 0 12.625 1.4375 C14.38186236 4.71165258 14.25438087 7.10008347 14.0625 10.7578125 C13.90720311 13.18768921 13.90720311 13.18768921 14.6875 16.25 C15.09126126 19.80309913 14.14878235 21.2145414 12 24 C10 25 10 25 0 25 C0 16.75 0 8.5 0 0 Z " fill="#EEAA58" transform="translate(204,139)"/>
<path d="M0 0 C3.04128913 1.10592332 5.78672704 2.41737594 8.5625 4.0625 C11.22078431 5.5608057 13.0501226 6.52801962 16 7 C15.9375 9.25 15.9375 9.25 15 12 C12.7691525 13.67849824 10.52594094 14.75999263 8 16 C8 17.32 8 18.64 8 20 C6.68 19.67 5.36 19.34 4 19 C3.51849058 16.95888458 3.03989917 14.91708068 2.5625 12.875 C2.16224609 11.16957031 2.16224609 11.16957031 1.75390625 9.4296875 C1.0649313 6.29538696 0.49618806 3.16982274 0 0 Z " fill="#FDFCFA" transform="translate(164,173)"/>
<path d="M0 0 C0 4.95 0 9.9 0 15 C-3.96 13.02 -7.92 11.04 -12 9 C-12 19.23 -12 29.46 -12 40 C-12.33 40 -12.66 40 -13 40 C-13.12379245 35.51604697 -13.21442571 31.03300398 -13.2746582 26.54785156 C-13.29977103 25.0229357 -13.33386883 23.49813985 -13.37719727 21.97363281 C-13.43800044 19.77899574 -13.46623887 17.5859519 -13.48828125 15.390625 C-13.51446533 14.07094727 -13.54064941 12.75126953 -13.56762695 11.39160156 C-13 8 -13 8 -10.59350586 5.6171875 C-9.73764893 5.08351562 -8.88179199 4.54984375 -8 4 C-7.01773438 3.37351563 -7.01773438 3.37351563 -6.015625 2.734375 C-1.11111111 0 -1.11111111 0 0 0 Z " fill="#F9F8F7" transform="translate(166,127)"/>
<path d="M0 0 C0 3.96 0 7.92 0 12 C-3.70500184 10.51799926 -6.67262 9.091496 -10 7 C-3.48275862 0 -3.48275862 0 0 0 Z " fill="#EDA957" transform="translate(223,193)"/>
<path d="M0 0 C0 3.63 0 7.26 0 11 C-3.3 9.35 -6.6 7.7 -10 6 C-2.8 0 -2.8 0 0 0 Z " fill="#E9974E" transform="translate(250,113)"/>
<path d="M0 0 C0 3.3 0 6.6 0 10 C-2.64 8.68 -5.28 7.36 -8 6 C-6.65038535 0.6015414 -5.51062674 0 0 0 Z " fill="#EEAC58" transform="translate(165,129)"/>
<path d="M0 0 C3.45925163 1.2491742 6.14693203 2.67527795 9 5 C7.68921847 5.83603378 6.37632511 6.6687574 5.0625 7.5 C3.96615234 8.19609375 3.96615234 8.19609375 2.84765625 8.90625 C1 10 1 10 0 10 C0 6.7 0 3.4 0 0 Z " fill="#EA964C" transform="translate(168,178)"/>
<path d="M0 0 C1.31602523 0.61754259 2.62773556 1.24428742 3.9375 1.875 C4.66839844 2.22304687 5.39929688 2.57109375 6.15234375 2.9296875 C8 4 8 4 9 6 C5.86501708 7.85776765 3.62528568 8.20140476 0 8 C0 5.36 0 2.72 0 0 Z " fill="#ECA152" transform="translate(253,162)"/>
<path d="M0 0 C1.66611905 -0.042721 3.33382885 -0.04063832 5 0 C6 1 6 1 6.125 3.5 C6 6 6 6 5 7 C3.33382885 7.04063832 1.66611905 7.042721 0 7 C0 4.69 0 2.38 0 0 Z " fill="#FDF9F5" transform="translate(208,153)"/>
<path d="M0 0 C1.65 0 3.3 0 5 0 C5.38218767 1.65614657 5.71395102 3.32457024 6 5 C5 6 5 6 2.4375 6.0625 C1.2309375 6.0315625 1.2309375 6.0315625 0 6 C0 4.02 0 2.04 0 0 Z " fill="#FEFBF6" transform="translate(208,143)"/>
<path d="M0 0 C0 1.98 0 3.96 0 6 C-2.31 6 -4.62 6 -7 6 C-5.96557526 2.89672578 -3.70631018 0 0 0 Z " fill="#E89249" transform="translate(223,193)"/>
<path d="M0 0 C2.97 0.33 5.94 0.66 9 1 C9.33 2.65 9.66 4.3 10 6 C6.7 4.35 3.4 2.7 0 1 C0 0.67 0 0.34 0 0 Z " fill="#F1B661" transform="translate(240,118)"/>
<path d="M0 0 C2.64 0 5.28 0 8 0 C5.64722731 2.72426311 3.37503669 3.8141763 0 5 C0 3.35 0 1.7 0 0 Z " fill="#F0B45F" transform="translate(168,183)"/>
<path d="M0 0 C0 0.99 0 1.98 0 3 C-3 5 -3 5 -6 5 C-6 4.01 -6 3.02 -6 2 C-3 0 -3 0 0 0 Z " fill="#EFB684" transform="translate(164,129)"/>
<path d="M0 0 C1.32 0.33 2.64 0.66 4 1 C4.33 2.65 4.66 4.3 5 6 C3.68 5.67 2.36 5.34 1 5 C0.67 3.35 0.34 1.7 0 0 Z " fill="#FCF0E1" transform="translate(167,187)"/>
<path d="M0 0 C2.31 0 4.62 0 7 0 C7 1.32 7 2.64 7 4 C4.08482708 2.92598892 2.22189824 2.22189824 0 0 Z " fill="#F2BE65" transform="translate(216,201)"/>
</svg>
